<?xml version="1.0" encoding="UTF-8" standalone="no"?>
<!-- Created with Inkscape (http://www.inkscape.org/) -->

<svg
   xmlns:dc="http://purl.org/dc/elements/1.1/"
   xmlns:cc="http://creativecommons.org/ns#"
   xmlns:rdf="http://www.w3.org/1999/02/22-rdf-syntax-ns#"
   xmlns:svg="http://www.w3.org/2000/svg"
   xmlns="http://www.w3.org/2000/svg"
   xmlns:sodipodi="http://sodipodi.sourceforge.net/DTD/sodipodi-0.dtd"
   xmlns:inkscape="http://www.inkscape.org/namespaces/inkscape"
   width="24"
   height="16"
   viewBox="0 0 6.3499999 4.2333335"
   version="1.1"
   id="svg1627"
   inkscape:version="0.92.3 (2405546, 2018-03-11)"
   sodipodi:docname="envelope1.svg">
  <defs
     id="defs1621" />
  <sodipodi:namedview
     id="base"
     pagecolor="#ffffff"
     bordercolor="#666666"
     borderopacity="1.0"
     inkscape:pageopacity="0.0"
     inkscape:pageshadow="2"
     inkscape:zoom="2"
     inkscape:cx="208.31281"
     inkscape:cy="-34.95215"
     inkscape:document-units="mm"
     inkscape:current-layer="layer1"
     showgrid="false"
     units="px"
     showguides="true"
     inkscape:guide-bbox="true"
     inkscape:window-width="1366"
     inkscape:window-height="706"
     inkscape:window-x="-8"
     inkscape:window-y="-8"
     inkscape:window-maximized="1">
    <sodipodi:guide
       position="-0.80201824,5.0766928"
       orientation="0,1"
       id="guide2211"
       inkscape:locked="false" />
    <sodipodi:guide
       position="1.9678386,5.5562501"
       orientation="0,1"
       id="guide2311"
       inkscape:locked="false" />
  </sodipodi:namedview>
  <metadata
     id="metadata1624">
    <rdf:RDF>
      <cc:Work
         rdf:about="">
        <dc:format>image/svg+xml</dc:format>
        <dc:type
           rdf:resource="http://purl.org/dc/dcmitype/StillImage" />
        <dc:title></dc:title>
      </cc:Work>
    </rdf:RDF>
  </metadata>
  <g
     inkscape:label="Layer 1"
     inkscape:groupmode="layer"
     id="layer1"
     transform="translate(0,-292.76665)">
    <path
       style="fill:#000000;fill-opacity:1;stroke:none;stroke-width:1.00119543px;stroke-linecap:butt;stroke-linejoin:miter;stroke-opacity:1"
       d="M 0.00390625 0.00390625 L 0.00390625 0.45507812 C 0.00390625 0.45507812 0.066931476 0.57329879 0.98632812 1.4394531 C 1.9057248 2.3056453 10.078125 10.552734 10.078125 10.552734 C 10.078125 10.552734 10.149652 10.614569 10.171875 10.636719 L 11.328125 11.865234 C 11.328125 11.865234 11.754268 12.336647 11.921875 12.289062 L 11.921875 12.300781 L 12.144531 12.302734 L 12.144531 12.298828 C 12.329985 12.28749 12.708984 11.861328 12.708984 11.861328 L 14.189453 10.289062 C 14.668318 9.8058886 22.128779 2.2786582 23.019531 1.4394531 C 23.93893 0.57341218 24.001953 0.45507812 24.001953 0.45507812 L 24.001953 0.005859375 L 12.158203 0.005859375 L 11.982422 0.005859375 L 11.982422 0.00390625 L 0.00390625 0.00390625 z M 0 3.0214844 L 0 8.0273438 L 0 8.0390625 L 0 13.044922 L 0.203125 13.044922 C 0.203125 13.044922 0.25764871 13.019446 0.6484375 12.634766 C 1.0391748 12.249594 4.7578125 8.8242188 4.7578125 8.8242188 C 4.7578125 8.8242188 4.8208008 8.7710278 4.8808594 8.6972656 L 5.1503906 8.4472656 C 5.1503906 8.4472656 5.4065034 8.2232655 5.4140625 8.1132812 L 5.4160156 8.1132812 L 5.4160156 7.9804688 L 5.4082031 7.9804688 C 5.4369804 7.8810672 5.1523438 7.6289062 5.1523438 7.6289062 L 4.890625 7.3867188 C 4.8266048 7.3043996 4.7578125 7.2421875 4.7578125 7.2421875 C 4.7578125 7.2421875 1.0391748 3.8188032 0.6484375 3.4335938 C 0.25764867 3.0487245 0.203125 3.0214844 0.203125 3.0214844 L 0 3.0214844 z M 23.802734 3.0214844 C 23.802734 3.0214844 23.748211 3.0487245 23.357422 3.4335938 C 23.037238 3.7492172 20.902401 5.7139813 19.990234 6.5546875 L 19.978516 6.5546875 L 18.826172 7.6210938 C 18.826172 7.6210938 18.541535 7.8732547 18.570312 7.9726562 L 18.5625 7.9726562 L 18.5625 8.1054688 L 18.564453 8.1054688 C 18.572012 8.215453 18.828125 8.4394531 18.828125 8.4394531 L 19.980469 9.5058594 L 19.984375 9.5058594 C 20.892114 10.34247 23.036644 12.318526 23.357422 12.634766 C 23.748211 13.019446 23.802734 13.044922 23.802734 13.044922 L 24.005859 13.044922 L 24.005859 8.0390625 L 24.005859 8.0273438 L 24.005859 3.0214844 L 23.802734 3.0214844 z M 16.96875 9.4609375 L 16.96875 9.4628906 C 16.858607 9.4707667 16.634766 9.7265625 16.634766 9.7265625 L 16.244141 10.148438 C 16.156284 10.220438 16.095703 10.291016 16.095703 10.291016 C 16.095703 10.291016 14.358549 12.222585 13.105469 13.580078 C 12.763355 13.950472 12.536042 13.971407 12.333984 14.027344 L 12.023438 14.027344 L 12.023438 14.03125 L 11.982422 14.03125 L 11.982422 14.027344 L 11.671875 14.027344 C 11.469818 13.971407 11.242505 13.95085 10.900391 13.580078 C 9.6473109 12.222547 7.9101562 10.291016 7.9101562 10.291016 C 7.9101562 10.291016 7.8412848 10.212148 7.7460938 10.136719 L 7.3691406 9.7285156 C 7.3691406 9.7285156 7.1173274 9.4439318 7.0175781 9.4726562 L 7.0175781 9.4648438 L 6.8847656 9.4648438 L 6.8847656 9.4667969 C 6.7746226 9.4743559 6.5507812 9.7304688 6.5507812 9.7304688 L 6.1171875 10.199219 C 6.0762497 10.23887 6.0214844 10.291016 6.0214844 10.291016 C 6.0214844 10.291016 1.9325758 14.753919 1.4726562 15.222656 C 1.0130986 15.691544 0.98242187 15.757812 0.98242188 15.757812 L 0.98242188 16 L 6.9589844 16 L 6.9726562 16 L 11.982422 16 L 12.171875 16 L 17.033203 16 L 17.046875 16 L 23.023438 16 L 23.023438 15.757812 C 23.023438 15.757812 22.992761 15.691507 22.533203 15.222656 C 22.073284 14.753919 17.984375 10.291016 17.984375 10.291016 C 17.984375 10.291016 17.940037 10.249452 17.919922 10.228516 L 17.453125 9.7246094 C 17.453125 9.7246094 17.201311 9.4400578 17.101562 9.46875 L 17.101562 9.4609375 L 16.96875 9.4609375 z "
       transform="matrix(0.26458333,0,0,0.26458333,0,292.76665)"
       id="path1651" />
  </g>
</svg>
