<?xml version="1.0" encoding="UTF-8" standalone="no"?>
<!-- Created with Inkscape (http://www.inkscape.org/) -->

<svg
   xmlns:dc="http://purl.org/dc/elements/1.1/"
   xmlns:cc="http://creativecommons.org/ns#"
   xmlns:rdf="http://www.w3.org/1999/02/22-rdf-syntax-ns#"
   xmlns:svg="http://www.w3.org/2000/svg"
   xmlns="http://www.w3.org/2000/svg"
   xmlns:sodipodi="http://sodipodi.sourceforge.net/DTD/sodipodi-0.dtd"
   xmlns:inkscape="http://www.inkscape.org/namespaces/inkscape"
   width="15"
   height="24"
   viewBox="0 0 3.96875 6.3499998"
   version="1.1"
   id="svg8"
   inkscape:version="0.92.3 (2405546, 2018-03-11)"
   sodipodi:docname="location1,svg.svg">
  <defs
     id="defs2" />
  <sodipodi:namedview
     id="base"
     pagecolor="#ffffff"
     bordercolor="#666666"
     borderopacity="1.0"
     inkscape:pageopacity="0.0"
     inkscape:pageshadow="2"
     inkscape:zoom="11.2"
     inkscape:cx="27.929254"
     inkscape:cy="15.29503"
     inkscape:document-units="mm"
     inkscape:current-layer="layer1"
     showgrid="false"
     units="px"
     inkscape:window-width="1366"
     inkscape:window-height="706"
     inkscape:window-x="-8"
     inkscape:window-y="-8"
     inkscape:window-maximized="1" />
  <metadata
     id="metadata5">
    <rdf:RDF>
      <cc:Work
         rdf:about="">
        <dc:format>image/svg+xml</dc:format>
        <dc:type
           rdf:resource="http://purl.org/dc/dcmitype/StillImage" />
        <dc:title></dc:title>
      </cc:Work>
    </rdf:RDF>
  </metadata>
  <g
     inkscape:label="Layer 1"
     inkscape:groupmode="layer"
     id="layer1"
     transform="translate(0,-290.65)">
    <path
       style="fill:#000000;fill-opacity:1;stroke:none;stroke-width:0.98137265;stroke-opacity:1"
       d="M 7.4960938 0.001953125 A 7.4969789 7.4969789 0 0 0 0 7.4980469 A 7.4969789 7.4969789 0 0 0 0.0078125 7.7167969 L 0 7.7167969 L 0.0078125 7.7363281 A 7.4969789 7.4969789 0 0 0 2.4453125 13.023438 L 7.5 24 L 12.556641 13.019531 A 7.4969789 7.4969789 0 0 0 14.980469 7.7578125 L 15 7.7167969 L 14.982422 7.7167969 A 7.4969789 7.4969789 0 0 0 14.994141 7.4980469 A 7.4969789 7.4969789 0 0 0 7.4960938 0.001953125 z M 7.5 3.3222656 A 3.5714285 3.5714285 0 0 1 11.072266 6.8925781 A 3.5714285 3.5714285 0 0 1 7.5 10.464844 A 3.5714285 3.5714285 0 0 1 3.9277344 6.8925781 A 3.5714285 3.5714285 0 0 1 7.5 3.3222656 z "
       transform="matrix(0.26458333,0,0,0.26458333,0,290.65)"
       id="path23" />
  </g>
</svg>
