<?xml version="1.0" encoding="UTF-8" standalone="no"?>
<!-- Created with Inkscape (http://www.inkscape.org/) -->

<svg
   xmlns:dc="http://purl.org/dc/elements/1.1/"
   xmlns:cc="http://creativecommons.org/ns#"
   xmlns:rdf="http://www.w3.org/1999/02/22-rdf-syntax-ns#"
   xmlns:svg="http://www.w3.org/2000/svg"
   xmlns="http://www.w3.org/2000/svg"
   xmlns:sodipodi="http://sodipodi.sourceforge.net/DTD/sodipodi-0.dtd"
   xmlns:inkscape="http://www.inkscape.org/namespaces/inkscape"
   width="21"
   height="26"
   viewBox="0 0 5.5562499 6.8791669"
   version="1.1"
   id="svg1004"
   inkscape:version="0.92.3 (2405546, 2018-03-11)"
   sodipodi:docname="password2.svg">
  <defs
     id="defs998" />
  <sodipodi:namedview
     id="base"
     pagecolor="#ffffff"
     bordercolor="#666666"
     borderopacity="1.0"
     inkscape:pageopacity="0.0"
     inkscape:pageshadow="2"
     inkscape:zoom="22.627417"
     inkscape:cx="13.485404"
     inkscape:cy="13.394982"
     inkscape:document-units="mm"
     inkscape:current-layer="layer1"
     showgrid="false"
     units="px"
     showguides="true"
     inkscape:guide-bbox="true"
     inkscape:window-width="1366"
     inkscape:window-height="706"
     inkscape:window-x="-8"
     inkscape:window-y="-8"
     inkscape:window-maximized="1" />
  <metadata
     id="metadata1001">
    <rdf:RDF>
      <cc:Work
         rdf:about="">
        <dc:format>image/svg+xml</dc:format>
        <dc:type
           rdf:resource="http://purl.org/dc/dcmitype/StillImage" />
        <dc:title></dc:title>
      </cc:Work>
    </rdf:RDF>
  </metadata>
  <g
     inkscape:label="Layer 1"
     inkscape:groupmode="layer"
     id="layer1"
     transform="translate(0,-290.12082)">
    <path
       style="fill:#000000;fill-opacity:1;stroke:none;stroke-width:0.99999994px;stroke-linecap:butt;stroke-linejoin:miter;stroke-opacity:1"
       d="M 10.484375 0.2578125 L 7.546875 0.34960938 C 7.546875 0.34960938 1.9726563 1.1284168 1.9726562 6.0722656 L 1.9726562 11.064453 L 0.05859375 11.064453 L 0.05859375 25.992188 L 10.484375 25.992188 L 20.912109 25.992188 L 20.912109 11.064453 L 18.998047 11.064453 L 18.998047 6.0722656 C 18.998047 1.1284168 13.423828 0.34960938 13.423828 0.34960938 L 10.484375 0.2578125 z M 10.484375 3.8261719 L 10.484375 3.828125 C 10.484375 3.828125 10.41958 3.823026 12.474609 3.8457031 C 14.463347 3.7352275 14.958984 5.0722656 14.958984 5.0722656 L 14.966797 11.060547 L 10.574219 11.060547 L 6.0039062 11.060547 L 6.0097656 5.0722656 C 6.0097656 5.0722656 6.5073559 3.7352275 8.4960938 3.8457031 C 10.551123 3.823026 10.484375 3.8261719 10.484375 3.8261719 z M 10.484375 14.054688 C 10.410395 14.056351 10.122353 14.060547 10.96875 14.060547 C 11.968749 14.060547 12.970703 15.271293 12.970703 15.591797 C 12.970703 15.912187 12.971794 18.056641 12.474609 18.056641 C 11.977437 18.056641 11.988281 18.419922 11.988281 18.419922 L 11.988281 21.304688 C 11.988281 22.133387 10.484375 22.044922 10.484375 22.044922 C 10.484375 22.044922 8.9824219 22.133387 8.9824219 21.304688 L 8.9824219 18.419922 C 8.9824219 18.419922 8.9932657 18.056641 8.4960938 18.056641 C 7.9989094 18.056641 8 15.912187 8 15.591797 C 8 15.271293 9.0019544 14.060547 10.001953 14.060547 C 10.844938 14.060547 10.558856 14.056374 10.484375 14.054688 z "
       transform="matrix(0.26458333,0,0,0.26458333,0,290.12082)"
       id="path1575" />
  </g>
</svg>
