<?xml version="1.0" encoding="UTF-8" standalone="no"?>
<!-- Created with Inkscape (http://www.inkscape.org/) -->

<svg
   xmlns:dc="http://purl.org/dc/elements/1.1/"
   xmlns:cc="http://creativecommons.org/ns#"
   xmlns:rdf="http://www.w3.org/1999/02/22-rdf-syntax-ns#"
   xmlns:svg="http://www.w3.org/2000/svg"
   xmlns="http://www.w3.org/2000/svg"
   xmlns:sodipodi="http://sodipodi.sourceforge.net/DTD/sodipodi-0.dtd"
   xmlns:inkscape="http://www.inkscape.org/namespaces/inkscape"
   width="15"
   height="25"
   viewBox="0 0 3.9687499 6.6145835"
   version="1.1"
   id="svg8"
   inkscape:version="0.92.3 (2405546, 2018-03-11)"
   sodipodi:docname="phone1.svg">
  <defs
     id="defs2" />
  <sodipodi:namedview
     id="base"
     pagecolor="#ffffff"
     bordercolor="#666666"
     borderopacity="1.0"
     inkscape:pageopacity="0.0"
     inkscape:pageshadow="2"
     inkscape:zoom="11.313709"
     inkscape:cx="15.801556"
     inkscape:cy="1.347501"
     inkscape:document-units="mm"
     inkscape:current-layer="layer1"
     showgrid="false"
     units="px"
     showguides="true"
     inkscape:guide-bbox="true"
     inkscape:window-width="1366"
     inkscape:window-height="706"
     inkscape:window-x="-8"
     inkscape:window-y="-8"
     inkscape:window-maximized="1">
    <sodipodi:guide
       position="-4.0679687,-1.0914062"
       orientation="1,0"
       id="guide885"
       inkscape:locked="false" />
    <sodipodi:guide
       position="8.1359375,-1.1244792"
       orientation="1,0"
       id="guide887"
       inkscape:locked="false" />
  </sodipodi:namedview>
  <metadata
     id="metadata5">
    <rdf:RDF>
      <cc:Work
         rdf:about="">
        <dc:format>image/svg+xml</dc:format>
        <dc:type
           rdf:resource="http://purl.org/dc/dcmitype/StillImage" />
        <dc:title></dc:title>
      </cc:Work>
    </rdf:RDF>
  </metadata>
  <g
     inkscape:label="Layer 1"
     inkscape:groupmode="layer"
     id="layer1"
     transform="translate(0,-290.3854)">
    <path
       style="fill:#000000;fill-opacity:1;stroke:none;stroke-width:0.26653236px;stroke-linecap:butt;stroke-linejoin:miter;stroke-opacity:1"
       d="M 0.52355049,290.3854 C 0.13762983,290.3854 0,290.92809 0,290.92809 v 5.77244 c 0,0.33424 0.2940772,0.29833 0.2940772,0.29833 h 1.6528276 0.074424 1.6533444 c 0,0 0.2940771,0.0359 0.2940771,-0.29833 v -5.77244 c 0,0 -0.1376298,-0.54269 -0.5235505,-0.54269 H 2.0838651 1.8843681 Z m 0.18089106,0.69999 h 1.17992655 0.199497 1.1799266 c 0,0 0.1881268,-0.0205 0.1881268,0.33085 v 2.26148 c 0,0 0.00436,0.0881 -0.086827,0.0881 H 1.9050414 v 5.1e-4 H 0.60365932 c -0.0911929,0 -0.0873444,-0.0886 -0.0873444,-0.0886 v -2.26148 c 0,-0.35145 0.1881267,-0.33085 0.1881267,-0.33085 z m 1.93915225,3.22363 h 0.8093583 v 0.53273 H 2.6435938 Z m -2.12159381,0.002 H 1.3313583 v 0.53273 H 0.52199999 Z m 1.05743751,0 h 0.3256039 0.1581505 0.3256039 v 0.53273 H 2.0833483 1.8854018 1.5794375 Z m 1.0636394,0.80329 h 0.8109088 v 0.54531 H 2.6430769 Z m -2.12159378,0.002 H 1.3323919 v 0.54531 H 0.52148312 Z m 1.05743748,0 h 0.3064812 0.1979465 0.3064812 v 0.54531 h -0.3969267 -0.017572 -0.39641 z m 1.0688077,0.82007 h 0.8010892 v 0.51173 H 2.6477283 Z m -2.12159367,0.002 H 1.3272237 v 0.51175 H 0.52613463 Z m 1.05743747,0 h 0.3917585 0.017572 0.3917584 v 0.51175 H 2.0218453 1.9463879 1.5835721 Z"
       id="path23"
       inkscape:connector-curvature="0" />
  </g>
</svg>
