<?xml version="1.0" encoding="utf-8"?>
<!-- Generator: Adobe Illustrator 22.1.0, SVG Export Plug-In . SVG Version: 6.00 Build 0)  -->
<svg version="1.1" id="Warstwa_1" xmlns="http://www.w3.org/2000/svg" xmlns:xlink="http://www.w3.org/1999/xlink" x="0px" y="0px"
	 viewBox="0 0 86 80" style="enable-background:new 0 0 86 80;" xml:space="preserve">
<style type="text/css">
	.st0{fill:none;stroke:#000000;stroke-width:4;stroke-miterlimit:10;}
</style>
<path class="st0" d="M9.8,77h66.3c3.8,0,6.8-3.5,6.8-7.9v-4.6c0-3.5-2-6.6-5-7.6l-20.2-6.7c-1.8-0.6-3.4-2.1-4.2-4.1l-1.9-4.5
	c-0.5-1.1-0.7-2.3-0.7-3.5v-5.5c0-1.2,0.2-2.4,0.7-3.5l2.6-5.9c0.5-1.1,0.7-2.3,0.7-3.5v-8.7c0-2.1-0.7-4.1-2-5.6l0,0
	C51.7,3.9,50,3,48.2,3H37.8C36,3,34.3,3.9,33,5.4l0,0c-1.3,1.5-2,3.5-2,5.6v8.7c0,1.2,0.2,2.4,0.7,3.5l2.6,5.9
	c0.5,1.1,0.7,2.3,0.7,3.5v5.5c0,1.2-0.2,2.4-0.7,3.5l-1.9,4.5c-0.9,2-2.4,3.4-4.2,4.1L8,56.8c-2.9,1-5,4.1-5,7.6v4.6
	C3,73.4,6.1,77,9.8,77z"/>
</svg>
