<?xml version="1.0" encoding="utf-8"?>
<!-- Generator: Adobe Illustrator 22.1.0, SVG Export Plug-In . SVG Version: 6.00 Build 0)  -->
<svg version="1.1" id="Warstwa_1" xmlns="http://www.w3.org/2000/svg" xmlns:xlink="http://www.w3.org/1999/xlink" x="0px" y="0px"
	 viewBox="0 0 192 117" style="enable-background:new 0 0 192 117;" xml:space="preserve">
<style type="text/css">
	.st0{fill:#161616;}
	.st1{fill:#0F0F0F;}
	.st2{fill:#0A0A0A;}
</style>
<path class="st0" d="M187,0.9H5c-1.1,0-2,0.9-2,2v108.7h3V111h180v0.6h3V2.9C189,1.8,188.1,0.9,187,0.9z M184,106H8
	c-1.1,0-2-0.9-2-2V6.7c0-1.1,0.9-2,2-2h176c1.1,0,2,0.9,2,2V104C186,105.1,185.1,106,184,106z"/>
<path class="st1" d="M13,111H5v-0.8c0-0.1,0.1-0.3,0.3-0.3h7.5c0.1,0,0.3,0.1,0.3,0.3V111z"/>
<path class="st1" d="M22,111h-8v-0.8c0-0.1,0.1-0.3,0.3-0.3h7.5c0.1,0,0.3,0.1,0.3,0.3V111z"/>
<path class="st1" d="M31,111h-8v-0.8c0-0.1,0.1-0.3,0.3-0.3h7.5c0.1,0,0.3,0.1,0.3,0.3V111z"/>
<path class="st1" d="M40,111h-8v-0.8c0-0.1,0.1-0.3,0.3-0.3h7.5c0.1,0,0.3,0.1,0.3,0.3V111z"/>
<path class="st1" d="M49,111h-8v-0.8c0-0.1,0.1-0.3,0.3-0.3h7.5c0.1,0,0.3,0.1,0.3,0.3V111z"/>
<path class="st1" d="M58,111h-8v-0.8c0-0.1,0.1-0.3,0.3-0.3h7.5c0.1,0,0.3,0.1,0.3,0.3V111z"/>
<path class="st1" d="M67,111h-8v-0.8c0-0.1,0.1-0.3,0.3-0.3h7.5c0.1,0,0.3,0.1,0.3,0.3V111z"/>
<path class="st1" d="M76,111h-8v-0.8c0-0.1,0.1-0.3,0.3-0.3h7.5c0.1,0,0.3,0.1,0.3,0.3V111z"/>
<path class="st1" d="M85,111h-8v-0.8c0-0.1,0.1-0.3,0.3-0.3h7.5c0.1,0,0.3,0.1,0.3,0.3V111z"/>
<path class="st1" d="M94,111h-8v-0.8c0-0.1,0.1-0.3,0.3-0.3h7.5c0.1,0,0.3,0.1,0.3,0.3V111z"/>
<path class="st1" d="M103,111h-8v-0.8c0-0.1,0.1-0.3,0.3-0.3h7.5c0.1,0,0.3,0.1,0.3,0.3V111z"/>
<path class="st1" d="M112,111h-8v-0.8c0-0.1,0.1-0.3,0.3-0.3h7.5c0.1,0,0.3,0.1,0.3,0.3V111z"/>
<path class="st1" d="M121,111h-8v-0.8c0-0.1,0.1-0.3,0.3-0.3h7.5c0.1,0,0.3,0.1,0.3,0.3V111z"/>
<path class="st1" d="M130,111h-8v-0.8c0-0.1,0.1-0.3,0.3-0.3h7.5c0.1,0,0.3,0.1,0.3,0.3V111z"/>
<path class="st1" d="M139,111h-8v-0.8c0-0.1,0.1-0.3,0.3-0.3h7.5c0.1,0,0.3,0.1,0.3,0.3V111z"/>
<path class="st1" d="M148,111h-8v-0.8c0-0.1,0.1-0.3,0.3-0.3h7.5c0.1,0,0.3,0.1,0.3,0.3V111z"/>
<path class="st1" d="M157,111h-8v-0.8c0-0.1,0.1-0.3,0.3-0.3h7.5c0.1,0,0.3,0.1,0.3,0.3V111z"/>
<path class="st1" d="M166,111h-8v-0.8c0-0.1,0.1-0.3,0.3-0.3h7.5c0.1,0,0.3,0.1,0.3,0.3V111z"/>
<path class="st1" d="M175,111h-8v-0.8c0-0.1,0.1-0.3,0.3-0.3h7.5c0.1,0,0.3,0.1,0.3,0.3V111z"/>
<path class="st1" d="M184,111h-8v-0.8c0-0.1,0.1-0.3,0.3-0.3h7.5c0.1,0,0.3,0.1,0.3,0.3V111z"/>
<path class="st2" d="M188,117.1H4c-2.2,0-4-1.8-4-4v-0.2c0-1.1,0.9-2,2-2h188c1.1,0,2,0.9,2,2v0.2C192,115.3,190.2,117.1,188,117.1z
	"/>
</svg>
