<?xml version="1.0" encoding="utf-8"?>
<!-- Generator: Adobe Illustrator 22.1.0, SVG Export Plug-In . SVG Version: 6.00 Build 0)  -->
<svg version="1.1" id="Warstwa_1" xmlns="http://www.w3.org/2000/svg" xmlns:xlink="http://www.w3.org/1999/xlink" x="0px" y="0px"
	 viewBox="0 0 100 89" style="enable-background:new 0 0 100 89;" xml:space="preserve">
<style type="text/css">
	.st0{fill:none;stroke:#000000;stroke-miterlimit:10;}
</style>
<path class="st0" d="M3.7,28.5L47.1,1.6c1.8-1.1,4.1-1.1,5.9,0l43.4,26.9c4.8,3,2.7,10.3-2.9,10.3h0c-3.1,0-5.6,2.5-5.6,5.6v38
	c0,3.1-2.5,5.6-5.6,5.6h-14c-3.1,0-5.6-2.5-5.6-5.6V58.3c0-3.1-2.5-5.6-5.6-5.6H43c-3.1,0-5.6,2.5-5.6,5.6v24.1
	c0,3.1-2.5,5.6-5.6,5.6h-14c-3.1,0-5.6-2.5-5.6-5.6v-38c0-3.1-2.5-5.6-5.6-5.6h0C1,38.9-1.1,31.5,3.7,28.5z"/>
</svg>
