<svg xmlns="http://www.w3.org/2000/svg">
	<symbol id="contact" viewBox="0 0 86 85.2">
		<path d="M10,2.1c-4.4,2-5.1,12.1-1.5,14.7l28,20.2c3.6,2.6,9.4,2.6,13,0l28-20.2c3.6-2.6,2.9-12.7-1.5-14.7
		C76,2.1,10,2.1,10,2.1z M37.4,55.3 M10,57.3c-4.4,0-8-3.6-8-8V20.2c0-4.4,2.9-5.9,6.6-3.4l27.9,19.5c3.6,2.5,9.5,2.5,13.1,0
		l27.9-19.5c3.6-2.5,6.6-1,6.6,3.4v29.1c0,4.4-3.6,8-8,8h-9.5 M62,12.7 M23,12.7 M62,20.7 M23,20.7 M73.4,42.8l-18,38.4
		c-1.2,2.6-4.8,2.9-4.8,0.4l-0.3-16.7c0-1-0.7-1.7-1.7-1.7l-16.7-0.3c-2.5-0.1-2.2-3.6,0.4-4.8l1.7-0.8l36.7-17.2
		C72.8,39.2,74.4,40.7,73.4,42.8z M10,57.3H34"/>
	</symbol>
	<symbol id="work" viewBox="0 0 100 73">
		<path d="M43.6,58.5l-11.9,10c-1.6,1.3-3.7,1.4-4.7,0.1l-6-7.5c-1-1.3-0.6-3.5,1-4.8l4.5-3.8L43.6,58.5z M53.8,29.5
		L38.1,42.7l17.1,6l9.2-7.7C62.5,36,58.7,31.9,53.8,29.5z M86.4,62.9l-2.2,6.7c-0.5,1.6-2.2,2.4-3.8,1.9l-36.8-13l-17.1-6l-10.3-3.6
		l-7.7-2.7l-4.9-1.7c-1.5-0.5-2.4-2.3-1.8-3.9L4,33.9c0.5-1.6,2.2-2.4,3.8-1.9l2.5,0.9c1.3,0.5,2.8-0.1,3.5-1.3
		c8.5-14.7,26.1-21.8,42.4-16c3.2,1.1,6.2,2.7,8.9,4.6c4.3,3.1,7.9,7.1,10.5,11.6c3.9,6.8,5.6,14.9,4.7,23.1c-0.2,1.4,0.7,2.8,2,3.2
		l2.5,0.9C86.1,59.6,86.9,61.3,86.4,62.9z M66.2,48c-0.2-2.5-0.8-4.8-1.7-7.1c-2-5-5.7-9.1-10.7-11.5c-0.7-0.3-1.4-0.6-2.1-0.9
		c-8.3-2.9-17.2-0.2-23,6.2c-1.5,1.6-0.8,4.3,1.2,5l8.2,2.9l17.1,6l7,2.5C64.3,51.9,66.4,50.2,66.2,48z M93.6,2.7L79.3,9.2
		c-2.3,1-4.1,3.1-4.6,4.9c-1.1-0.4-2.5-0.1-3.6,0.8l-6.2,5.2c4.3,3.1,7.9,7.1,10.5,11.6l5.5-4.6c1.1-1,1.7-2.3,1.5-3.5
		c1.8-0.2,4.1-1.6,5.6-3.6l9-13.2C99.3,3.5,97.4,1,93.6,2.7z M11,38.3l-2.6,7.9L11,38.3z M36.6,47.6 M34.1,55.5 M44.3,50.2
		 M41.7,58.2 M62.2,64.8l2.6-7.9L62.2,64.8 M69.9,67.4l2.6-7.9L69.9,67.4 M46.9,59.5l2.6-7.9L46.9,59.5 M54.5,62.1l2.6-7.9L54.5,62.1
		 M31.5,54.2l2.6-7.9L31.5,54.2 M39.2,56.8l2.6-7.9L39.2,56.8 M16.1,48.9l2.6-7.9L16.1,48.9 M23.8,51.6l2.6-7.9L23.8,51.6 M76.3,70
		l2.6-7.9L76.3,70"/> 
	</symbol>
	<symbol id="about" viewBox="0 0 86 80">
		<path d="M9.8,77h66.3c3.8,0,6.8-3.5,6.8-7.9v-4.6c0-3.5-2-6.6-5-7.6l-20.2-6.7c-1.8-0.6-3.4-2.1-4.2-4.1l-1.9-4.5
		c-0.5-1.1-0.7-2.3-0.7-3.5v-5.5c0-1.2,0.2-2.4,0.7-3.5l2.6-5.9c0.5-1.1,0.7-2.3,0.7-3.5v-8.7c0-2.1-0.7-4.1-2-5.6l0,0
		C51.7,3.9,50,3,48.2,3H37.8C36,3,34.3,3.9,33,5.4l0,0c-1.3,1.5-2,3.5-2,5.6v8.7c0,1.2,0.2,2.4,0.7,3.5l2.6,5.9
		c0.5,1.1,0.7,2.3,0.7,3.5v5.5c0,1.2-0.2,2.4-0.7,3.5l-1.9,4.5c-0.9,2-2.4,3.4-4.2,4.1L8,56.8c-2.9,1-5,4.1-5,7.6v4.6
		C3,73.4,6.1,77,9.8,77z"/>
	</symbol>
</svg>