<?xml version="1.0" encoding="utf-8"?>
<!-- Generator: Adobe Illustrator 22.1.0, SVG Export Plug-In . SVG Version: 6.00 Build 0)  -->
<svg version="1.1" id="Warstwa_1" xmlns="http://www.w3.org/2000/svg" xmlns:xlink="http://www.w3.org/1999/xlink" x="0px" y="0px"
	 viewBox="0 0 100 73" style="enable-background:new 0 0 100 73;" xml:space="preserve">
<style type="text/css">
	.st0{fill:none;stroke:#000000;stroke-width:3;stroke-miterlimit:10;}
</style>
<path class="st0" d="M43.6,58.5l-11.9,10c-1.6,1.3-3.7,1.4-4.7,0.1l-6-7.5c-1-1.3-0.6-3.5,1-4.8l4.5-3.8L43.6,58.5z M53.8,29.5
	L38.1,42.7l17.1,6l9.2-7.7C62.5,36,58.7,31.9,53.8,29.5z M86.4,62.9l-2.2,6.7c-0.5,1.6-2.2,2.4-3.8,1.9l-36.8-13l-17.1-6l-10.3-3.6
	l-7.7-2.7l-4.9-1.7c-1.5-0.5-2.4-2.3-1.8-3.9L4,33.9c0.5-1.6,2.2-2.4,3.8-1.9l2.5,0.9c1.3,0.5,2.8-0.1,3.5-1.3
	c8.5-14.7,26.1-21.8,42.4-16c3.2,1.1,6.2,2.7,8.9,4.6c4.3,3.1,7.9,7.1,10.5,11.6c3.9,6.8,5.6,14.9,4.7,23.1c-0.2,1.4,0.7,2.8,2,3.2
	l2.5,0.9C86.1,59.6,86.9,61.3,86.4,62.9z M66.2,48c-0.2-2.5-0.8-4.8-1.7-7.1c-2-5-5.7-9.1-10.7-11.5c-0.7-0.3-1.4-0.6-2.1-0.9
	c-8.3-2.9-17.2-0.2-23,6.2c-1.5,1.6-0.8,4.3,1.2,5l8.2,2.9l17.1,6l7,2.5C64.3,51.9,66.4,50.2,66.2,48z M93.6,2.7L79.3,9.2
	c-2.3,1-4.1,3.1-4.6,4.9c-1.1-0.4-2.5-0.1-3.6,0.8l-6.2,5.2c4.3,3.1,7.9,7.1,10.5,11.6l5.5-4.6c1.1-1,1.7-2.3,1.5-3.5
	c1.8-0.2,4.1-1.6,5.6-3.6l9-13.2C99.3,3.5,97.4,1,93.6,2.7z M11,38.3l-2.6,7.9L11,38.3z M36.6,47.6 M34.1,55.5 M44.3,50.2
	 M41.7,58.2 M62.2,64.8l2.6-7.9L62.2,64.8 M69.9,67.4l2.6-7.9L69.9,67.4 M46.9,59.5l2.6-7.9L46.9,59.5 M54.5,62.1l2.6-7.9L54.5,62.1
	 M31.5,54.2l2.6-7.9L31.5,54.2 M39.2,56.8l2.6-7.9L39.2,56.8 M16.1,48.9l2.6-7.9L16.1,48.9 M23.8,51.6l2.6-7.9L23.8,51.6 M76.3,70
	l2.6-7.9L76.3,70"/>
</svg>
